<svg
   width="1000"
   height="1000"
   viewBox="0 0 1000 1000"
   xmlns="http://www.w3.org/2000/svg">
  <defs/>
  <g>
    <rect
       style="display:inline;opacity:1;fill:#05df72;fill-opacity:1;stroke-width:1.125"
       id="rect9"
       width="900"
       height="900"
       x="50"
       y="50"
       rx="173.07692"
       ry="173.07692" />
    <path
       id="path1"
       style="display:inline;fill:#f2f1f1;fill-opacity:1;stroke-width:1.15384"
       d="m 494.80767,183.26922 c -203.9037,0 -212.55889,0.0852 -218.65383,2.14544 -21.45046,7.25104 -34.40295,19.53142 -40.97281,38.84765 l -2.87335,8.44876 v 162.88386 c 0,157.38002 0.0745,163.17824 2.23558,171.62786 1.23013,4.80977 3.37952,10.98384 4.77539,13.71995 3.3409,6.54871 15.14171,18.08406 22.53381,22.029 12.8923,6.88021 -1.60345,6.48424 240.68733,6.56699 160.60386,0.0548 224.04496,-0.28362 228.46154,-1.22144 19.87212,-4.21975 36.30482,-20.94793 40.09839,-40.81731 0.96021,-5.0291 1.227,-45.27626 0.97582,-147.11538 l -0.3448,-140.1923 -2.98828,-6.34616 c -3.62382,-7.69487 -8.17516,-13.25649 -13.01457,-15.90596 -3.36944,-1.84467 -19.84191,-2.01747 -244.76637,-2.55557 l -241.15384,-0.57693 -0.34706,-8.04538 c -0.44476,-10.31127 1.88071,-16.5782 8.13552,-21.93208 2.59683,-2.22281 7.43764,-5.05853 10.75871,-6.30109 5.86175,-2.19316 11.8889,-2.29547 206.11253,-3.47731 221.38768,-1.34711 205.96536,-1.77915 217.36026,6.07346 3.02722,2.08616 6.50179,5.71657 7.72086,8.06567 l 2.2153,4.27057 h 13.134 13.13402 l 0.7482,-2.977 c 1.26362,-5.03465 -0.61323,-15.58296 -3.81986,-21.47462 -5.68648,-10.44792 -16.19302,-18.30667 -31.49865,-23.56144 -6.13103,-2.10493 -13.54306,-2.17924 -218.65384,-2.17924 z M 417.19123,300.3846 h 23.95584 c 17.98403,0 24.25782,0.3669 25.17277,1.46936 1.5278,1.84088 43.40996,81.15486 47.23332,89.44785 2.3647,5.12914 3.08932,5.88301 4.51624,4.69878 0.93476,-0.77579 12.17935,-22.36817 24.98798,-47.98153 17.21202,-34.41881 23.89088,-46.71841 25.59645,-47.14092 1.26923,-0.31443 12.24858,-0.42343 24.39978,-0.24339 l 22.09435,0.32678 -10.61448,20.1923 c -23.45141,44.61676 -45.68735,87.87654 -45.68735,88.88221 0,0.599 8.96207,1.20199 20.48077,1.3792 l 20.48076,0.31551 v 17.30769 17.30769 l -31.47836,0.30649 -31.47836,0.30874 0.32452,13.53741 0.32452,13.53967 31.0975,0.30875 c 23.11384,0.22874 31.32937,0.67309 32.00121,1.73077 1.17787,1.85436 1.17785,29.8359 0,31.69019 -0.67071,1.05591 -8.77201,1.50213 -31.42428,1.73078 l -30.52058,0.30875 -0.31325,24.14063 c -0.19975,15.43257 -0.76947,24.69398 -1.58204,25.67306 -0.9695,1.16818 -6.15762,1.53245 -21.85997,1.53245 -19.4172,0 -20.65725,-0.13226 -21.82392,-2.3122 -0.77712,-1.45207 -1.18699,-10.99614 -1.10201,-25.67308 l 0.13521,-23.36086 -30.95778,-0.57694 -30.95778,-0.57692 -0.32227,-15.41691 c -0.21744,-10.38361 0.10974,-15.9403 1.00512,-17.01924 1.07394,-1.29401 7.29286,-1.6023 32.34375,-1.6023 h 31.01186 v -13.82813 -13.82813 l -31.4423,-0.30649 -31.44231,-0.30649 v -17.30769 -17.30769 l 21.7473,-0.31324 c 19.38412,-0.28017 21.67109,-0.51573 21.03965,-2.16121 -0.38963,-1.0154 -13.35943,-25.92791 -28.82361,-55.35984 z M 296.81489,435.38459 c 5.39887,0.0124 10.96684,1.69186 16.05244,5.4695 13.71846,10.1903 15.28968,28.72338 3.42096,40.35983 -8.66566,8.49608 -19.83564,10.57794 -30.38987,5.66331 -7.51271,-3.49832 -13.77885,-10.8008 -15.52959,-18.0987 -4.42585,-18.44903 10.24947,-33.43093 26.44606,-33.39394 z m 320.84584,223.69516 c -8.0552,0.0543 -16.01581,0.7418 -17.42488,2.01698 -1.95717,1.77122 -2.02672,6.40479 -1.38146,91.44231 0.59139,77.93719 0.90625,89.83869 2.43616,91.59554 1.52151,1.74724 3.98642,2.01923 18.28575,2.01923 16.4706,0 16.53093,-0.0107 18.46605,-2.96349 1.77978,-2.71629 1.87519,-7.49669 1.13806,-57.38807 -0.52828,-35.75581 -0.41587,-54.03489 0.33129,-53.28651 0.6255,0.62655 14.87313,23.20538 31.6609,50.17654 16.78777,26.97115 32.52257,52.15384 34.96468,55.96153 l 4.43961,6.92308 17.29869,0.32001 c 15.25646,0.28301 17.47075,0.0886 18.75,-1.66091 1.13416,-1.55106 1.42678,-19.23916 1.33638,-81.0915 -0.12599,-86.18988 -0.61065,-101.05661 -3.3466,-102.78469 -2.22404,-1.40473 -33.49887,-1.43444 -35.71289,-0.0338 -1.42671,0.90254 -1.63707,7.96712 -1.41526,47.57813 0.14327,25.58521 0.56013,51.45162 0.92623,57.48046 0.59562,9.80862 0.48797,10.71882 -1.02314,8.65384 -1.71687,-2.34611 -51.83179,-82.72301 -63.19337,-101.35365 -3.42124,-5.61014 -7.26385,-10.93225 -8.54115,-11.82692 -1.78976,-1.2536 -9.93985,-1.83248 -17.99505,-1.7781 z m -216.4408,0.151 c -14.43341,0 -19.81464,0.40659 -22.28816,1.68569 -2.56926,1.32862 -6.2604,7.50758 -17.4091,29.13462 -7.78226,15.09661 -16.08451,31.00795 -18.44801,35.35681 l -4.29762,7.90566 -5.20584,-9.63642 c -2.86369,-5.30079 -10.81622,-20.24955 -17.67277,-33.21815 -6.85655,-12.96862 -13.88798,-25.17054 -15.62425,-27.11539 l -3.15731,-3.5359 -20.44245,-0.36509 c -12.41471,-0.22144 -20.89164,0.0818 -21.58279,0.773 -0.74836,0.74836 1.15085,5.41845 5.54613,13.6343 7.60095,14.20803 55.56636,98.32277 57.24834,100.39362 0.60665,0.7469 1.03667,5.93921 0.95553,11.53847 -0.0811,5.59926 -0.114,20.65591 -0.0722,33.46153 0.064,19.55795 0.36768,23.57306 1.89077,25.09616 1.4913,1.49129 4.96637,1.81415 19.57482,1.81415 16.71434,0 17.83588,-0.13998 19.02494,-2.36178 0.8475,-1.58356 1.19273,-13.45663 1.05018,-36.0577 l -0.21184,-33.6959 15.88116,-28.84615 c 40.81495,-74.13349 45.77494,-83.52541 44.8738,-84.98347 -0.33227,-0.53763 -9.16818,-0.97806 -19.63342,-0.97806 z m 104.10082,0 c -49.27726,0 -53.72148,0.16027 -55.97055,2.01923 l -2.44291,2.01923 -0.0316,89.42306 -0.0315,89.42308 2.65701,2.3077 c 2.57734,2.23846 4.30728,2.30796 57.69456,2.30318 51.2452,-0.004 55.18127,-0.14597 57.09509,-2.0598 1.75947,-1.75943 2.0553,-4.20513 2.0553,-16.97415 0,-12.77796 -0.29611,-15.21375 -2.0598,-16.97866 -1.87751,-1.87885 -5.36055,-2.08892 -39.51923,-2.39333 l -37.45943,-0.33354 v -18.99339 -18.99339 h 31.15385 c 38.76157,0 35.76923,1.63919 35.76923,-19.58834 0,-14.48616 -0.0882,-15.03279 -2.73813,-16.76908 -2.33854,-1.53227 -7.233,-1.7475 -33.4638,-1.46935 l -30.7234,0.32678 0.002,-17.48574 v -17.48572 l 36.17037,-0.39889 c 28.50589,-0.31421 36.57393,-0.73513 38.07692,-1.98317 1.59284,-1.32266 1.90655,-4.032 1.90655,-16.44231 0,-13.32027 -0.23893,-15.09697 -2.3077,-17.16572 -2.24136,-2.24136 -3.84551,-2.30768 -55.83307,-2.30768 z" />
  </g>
</svg>
